# xmcd
#
# Track frame offsets:
# 150
# 23361
# 42683
# 60781
# 78506
# 99621
# 118690
# 140712
# 158921
# 178782
# 200059
# 215866
# 240829
# 260043
# 278025
# 297092
#
# Disc length: 4523 seconds
#
# Revision: 1
# Processed by: cddbd v1.4PL0 Copyright (c) Steve Scherf et al.
# Submitted via: CedeCatalogueitor 2.5 http://usuarios.lycos.es/kakasboy
#
DISCID=ec11a910
DTITLE=Joe Cocker - The Best Of Joe Cocker
DYEAR=1992
DGENRE=
TTITLE0=Unchain My Heart
TTITLE1=You Can Leave Your Hat On
TTITLE2=When The Night Comes
TTITLE3=Up Where We Belong
TTITLE4=Now That The Magic Has Gone
TTITLE5=Don't You Love Me Anymore
TTITLE6=I Can Hear The River
TTITLE7=Sorry Seems To Be The Hardest Word
TTITLE8=Shelter Me
TTITLE9=Feels Like Forever
TTITLE10=Night Calls
TTITLE11=Don't Let The Sun Do Down On Me
TTITLE12=Now That You're Gone
TTITLE13=Civilized Man
TTITLE14=When A Woman Cries
TTITLE15=With A Little Help From My Friends
EXTD=
EXTT0=
EXTT1=
EXTT2=
EXTT3=
EXTT4=
EXTT5=
EXTT6=
EXTT7=
EXTT8=
EXTT9=
EXTT10=
EXTT11=
EXTT12=
EXTT13=
EXTT14=
EXTT15=
PLAYORDER=
